<svg width="239" height="38" viewBox="0 0 239 38" fill="none" xmlns="http://www.w3.org/2000/svg">
<path fill-rule="evenodd" clip-rule="evenodd" d="M54.0114 35.9646C54.0114 35.6922 53.9124 35.4655 53.7201 35.2819C53.5249 35.0994 53.1827 34.9424 52.6914 34.813C52.0833 34.6635 51.6094 34.4419 51.2685 34.1478C50.9277 33.8552 50.7568 33.4865 50.7568 33.0431C50.7568 32.5745 50.9403 32.1856 51.3078 31.8726C51.6753 31.5597 52.1504 31.404 52.7368 31.404C53.3679 31.404 53.8683 31.5824 54.2433 31.9398C54.6169 32.2969 54.7982 32.7139 54.7868 33.1901L54.7742 33.2154H54.0026C54.0026 32.8761 53.8836 32.5946 53.6465 32.3731C53.4097 32.1512 53.1068 32.041 52.7368 32.041C52.3593 32.041 52.0693 32.1311 51.8679 32.316C51.6665 32.4996 51.565 32.7379 51.565 33.0305C51.565 33.2916 51.6765 33.5082 51.8971 33.6817C52.116 33.8552 52.476 34.0086 52.9713 34.1403C53.5742 34.296 54.0331 34.5256 54.3483 34.8295C54.6626 35.1347 54.8209 35.5099 54.8209 35.9559C54.8209 36.4385 54.6295 36.8261 54.2507 37.1189C53.8709 37.4115 53.3754 37.5584 52.766 37.5597C52.1883 37.5584 51.6778 37.3962 51.2345 37.0745C50.7921 36.7502 50.5781 36.3182 50.592 35.7759L50.6011 35.7506H51.3736C51.3736 36.1255 51.5144 36.4158 51.7995 36.6198C52.0845 36.8248 52.4076 36.925 52.766 36.925C53.1487 36.925 53.4525 36.84 53.6757 36.6678C53.8985 36.4956 54.0114 36.2611 54.0114 35.9646ZM57.9425 37.4721H57.1291V31.4886H57.9425V37.4721ZM63.4713 36.3499H63.4965L65.4058 31.4886H66.4129V37.4721H65.6047V32.9899L65.5794 32.9861L63.7664 37.4721H63.204L61.3391 32.8365L61.3138 32.8417V37.4721H60.5043V31.4886H61.5697L63.4713 36.3499ZM69.7031 35.0728V37.4721H68.8949V31.4886H71.1827C71.8213 31.4886 72.3178 31.6547 72.6727 31.9829C73.0275 32.3108 73.2036 32.7441 73.2036 33.2815C73.2036 33.8235 73.0275 34.2581 72.6727 34.5837C72.3178 34.9093 71.8213 35.0728 71.1827 35.0728H69.7031ZM69.7031 34.4406H71.1827C71.5881 34.4406 71.891 34.3304 72.0911 34.1137C72.2913 33.8958 72.3902 33.6208 72.3902 33.2903C72.3902 32.9582 72.2903 32.6809 72.0885 32.4603C71.8871 32.2388 71.5858 32.1259 71.1827 32.1259H69.7031V34.4406ZM76.1325 36.84H79.0489V37.4721H75.323V31.4886H76.1325V36.84ZM81.926 37.4721H81.1129V31.4886H81.926V37.4721ZM87.8209 34.8256H85.2973V37.4721H84.4878V31.4886H88.2402V32.1259H85.2973V34.1896H87.8209V34.8256ZM91.1085 37.4721H90.2938V31.4886H91.1085V37.4721ZM97.9395 35.5579L97.9473 35.5819C97.9586 36.1446 97.7611 36.6146 97.3557 36.9908C96.9503 37.3696 96.4142 37.5584 95.7493 37.5597C95.0728 37.5584 94.5214 37.319 94.0946 36.84C93.6701 36.36 93.4573 35.7519 93.4573 35.0157V33.9503C93.4573 33.2144 93.6701 32.6063 94.0946 32.1246C94.5214 31.6434 95.0728 31.404 95.7493 31.404C96.4255 31.404 96.9642 31.5837 97.3644 31.9437C97.7634 32.3046 97.9586 32.7811 97.9473 33.3752L97.9395 33.4005H97.163C97.163 32.9812 97.0388 32.6504 96.793 32.4058C96.5471 32.1626 96.1988 32.041 95.7493 32.041C95.2969 32.041 94.9372 32.2223 94.6687 32.5871C94.4011 32.9507 94.2655 33.4041 94.2655 33.9428V35.0157C94.2655 35.5605 94.4011 36.0152 94.6687 36.3801C94.9372 36.7424 95.2969 36.925 95.7493 36.925C96.1988 36.925 96.5471 36.8046 96.793 36.5627C97.0388 36.3195 97.163 35.9838 97.163 35.5579H97.9395ZM103.169 35.9306H100.918L100.384 37.4721H99.5575L101.715 31.4886H102.409L104.521 37.4721H103.695L103.169 35.9306ZM101.153 35.2541H102.939L102.068 32.6861H102.043L101.153 35.2541ZM111.005 37.4721H110.196L107.315 32.9027L107.289 32.9115V37.4721H106.481V31.4886H107.289L110.17 36.0545L110.196 36.0457V31.4886H111.005V37.4721ZM113.486 37.4721V31.4886H115.368C116.147 31.4886 116.776 31.7306 117.251 32.2122C117.727 32.6909 117.964 33.313 117.964 34.0745V34.8915C117.964 35.6556 117.727 36.2776 117.251 36.7554C116.776 37.2341 116.147 37.4721 115.368 37.4721H113.486ZM114.295 32.1259V36.84H115.368C115.921 36.84 116.357 36.6577 116.677 36.2929C116.996 35.928 117.155 35.4616 117.155 34.8915V34.0657C117.155 33.5017 116.996 33.0383 116.677 32.6734C116.357 32.3085 115.921 32.1259 115.368 32.1259H114.295ZM124.833 35.0157C124.833 35.7454 124.606 36.3535 124.153 36.8351C123.701 37.3177 123.112 37.5584 122.388 37.5597C121.69 37.5584 121.122 37.3177 120.684 36.8351C120.248 36.3535 120.029 35.7454 120.029 35.0157V33.9503C120.029 33.2231 120.248 32.615 120.684 32.1298C121.122 31.6459 121.69 31.404 122.388 31.404C123.112 31.404 123.701 31.6446 124.153 32.1285C124.606 32.6124 124.833 33.2205 124.833 33.9503V35.0157ZM124.024 33.9428C124.024 33.3954 123.875 32.9455 123.579 32.5946C123.284 32.2437 122.886 32.0689 122.388 32.0689C121.917 32.0689 121.542 32.2437 121.261 32.5946C120.979 32.9455 120.839 33.3954 120.839 33.9428V35.0157C120.839 35.5693 120.979 36.0204 121.261 36.3714C121.542 36.7223 121.917 36.8971 122.388 36.8971C122.89 36.8971 123.288 36.7223 123.583 36.3726C123.877 36.023 124.024 35.5706 124.024 35.0157V33.9428ZM132.019 34.6978H129.562V36.84H132.438V37.4721H128.753V31.4886H132.394V32.1259H129.562V34.0618H132.019V34.6978ZM137.045 37.4721H136.231V31.4886H137.045V37.4721ZM144.132 37.4721H143.323L140.442 32.9027L140.417 32.9115V37.4721H139.608V31.4886H140.417L143.298 36.0545L143.323 36.0457V31.4886H144.132V37.4721ZM151.182 35.0157C151.182 35.7454 150.955 36.3535 150.502 36.8351C150.049 37.3177 149.46 37.5584 148.738 37.5597C148.039 37.5584 147.471 37.3177 147.034 36.8351C146.597 36.3535 146.379 35.7454 146.379 35.0157V33.9503C146.379 33.2231 146.597 32.615 147.034 32.1298C147.471 31.6459 148.039 31.404 148.738 31.404C149.46 31.404 150.049 31.6446 150.502 32.1285C150.955 32.6124 151.182 33.2205 151.182 33.9503V35.0157ZM150.372 33.9428C150.372 33.3954 150.224 32.9455 149.929 32.5946C149.633 32.2437 149.236 32.0689 148.738 32.0689C148.267 32.0689 147.891 32.2437 147.611 32.5946C147.328 32.9455 147.187 33.3954 147.187 33.9428V35.0157C147.187 35.5693 147.328 36.0204 147.611 36.3714C147.891 36.7223 148.267 36.8971 148.738 36.8971C149.238 36.8971 149.636 36.7223 149.932 36.3726C150.225 36.023 150.372 35.5706 150.372 35.0157V33.9428ZM155.155 35.9027L155.292 36.3992H155.316L155.452 35.9027L156.996 31.4886H157.871L155.649 37.4721H154.953L152.731 31.4886H153.609L155.155 35.9027ZM162.521 35.9306H160.271L159.736 37.4721H158.91L161.068 31.4886H161.762L163.874 37.4721H163.048L162.521 35.9306ZM160.505 35.2541H162.291L161.42 32.6861H161.396L160.505 35.2541ZM170.357 37.4721H169.548L166.667 32.9027L166.642 32.9115V37.4721H165.832V31.4886H166.642L169.523 36.0545L169.548 36.0457V31.4886H170.357V37.4721ZM172.838 37.4721V31.4886H174.72C175.5 31.4886 176.128 31.7306 176.603 32.2122C177.078 32.6909 177.316 33.313 177.316 34.0745V34.8915C177.316 35.6556 177.078 36.2776 176.603 36.7554C176.128 37.2341 175.5 37.4721 174.72 37.4721H172.838ZM173.648 32.1259V36.84H174.72C175.273 36.84 175.709 36.6577 176.028 36.2929C176.349 35.928 176.507 35.4616 176.507 34.8915V34.0657C176.507 33.5017 176.349 33.0383 176.028 32.6734C175.709 32.3085 175.273 32.1259 174.72 32.1259H173.648ZM184.186 35.0157C184.186 35.7454 183.958 36.3535 183.506 36.8351C183.052 37.3177 182.463 37.5584 181.741 37.5597C181.043 37.5584 180.474 37.3177 180.037 36.8351C179.601 36.3535 179.382 35.7454 179.382 35.0157V33.9503C179.382 33.2231 179.601 32.615 180.037 32.1298C180.474 31.6459 181.043 31.404 181.741 31.404C182.463 31.404 183.052 31.6446 183.506 32.1285C183.958 32.6124 184.186 33.2205 184.186 33.9503V35.0157ZM183.376 33.9428C183.376 33.3954 183.228 32.9455 182.932 32.5946C182.635 32.2437 182.238 32.0689 181.741 32.0689C181.269 32.0689 180.893 32.2437 180.613 32.5946C180.332 32.9455 180.191 33.3954 180.191 33.9428V35.0157C180.191 35.5693 180.332 36.0204 180.613 36.3714C180.893 36.7223 181.269 36.8971 181.741 36.8971C182.241 36.8971 182.64 36.7223 182.934 36.3726C183.229 36.023 183.376 35.5706 183.376 35.0157V33.9428ZM191.294 35.9646C191.294 35.6922 191.197 35.4655 191.003 35.2819C190.808 35.0994 190.466 34.9424 189.974 34.813C189.366 34.6635 188.892 34.4419 188.551 34.1478C188.211 33.8552 188.04 33.4865 188.04 33.0431C188.04 32.5745 188.223 32.1856 188.591 31.8726C188.958 31.5597 189.433 31.404 190.02 31.404C190.651 31.404 191.151 31.5824 191.526 31.9398C191.9 32.2969 192.081 32.7139 192.07 33.1901L192.057 33.2154H191.286C191.286 32.8761 191.166 32.5946 190.929 32.3731C190.693 32.1512 190.39 32.041 190.02 32.041C189.642 32.041 189.352 32.1311 189.151 32.316C188.949 32.4996 188.848 32.7379 188.848 33.0305C188.848 33.2916 188.959 33.5082 189.18 33.6817C189.399 33.8552 189.759 34.0086 190.254 34.1403C190.857 34.296 191.316 34.5256 191.631 34.8295C191.946 35.1347 192.104 35.5099 192.104 35.9559C192.104 36.4385 191.912 36.8261 191.534 37.1189C191.154 37.4115 190.658 37.5584 190.049 37.5597C189.471 37.5584 188.961 37.3962 188.517 37.0745C188.075 36.7502 187.861 36.3182 187.875 35.7759L187.884 35.7506H188.657C188.657 36.1255 188.797 36.4158 189.082 36.6198C189.367 36.8248 189.69 36.925 190.049 36.925C190.432 36.925 190.736 36.84 190.959 36.6678C191.182 36.4956 191.294 36.2611 191.294 35.9646ZM197.596 34.6978H195.138V36.84H198.015V37.4721H194.329V31.4886H197.97V32.1259H195.138V34.0618H197.596V34.6978ZM203.02 36.3499H203.045L204.954 31.4886H205.961V37.4721H205.152V32.9899L205.126 32.9861L203.315 37.4721H202.752L200.887 32.8365L200.862 32.8417V37.4721H200.052V31.4886H201.116L203.02 36.3499ZM209.251 35.0728V37.4721H208.442V31.4886H210.731C211.37 31.4886 211.866 31.6547 212.221 31.9829C212.575 32.3108 212.752 32.7441 212.752 33.2815C212.752 33.8235 212.575 34.2581 212.221 34.5837C211.866 34.9093 211.37 35.0728 210.731 35.0728H209.251ZM209.251 34.4406H210.731C211.136 34.4406 211.439 34.3304 211.638 34.1137C211.84 33.8958 211.938 33.6208 211.938 33.2903C211.938 32.9582 211.838 32.6809 211.637 32.4603C211.435 32.2388 211.134 32.1259 210.731 32.1259H209.251V34.4406ZM215.681 34.8788V37.4721H214.871V31.4938H216.917C217.572 31.4938 218.071 31.6395 218.417 31.9297C218.762 32.2197 218.935 32.6416 218.935 33.1952C218.935 33.5017 218.854 33.768 218.695 33.996C218.535 34.224 218.301 34.404 217.994 34.5383C218.322 34.6446 218.558 34.8195 218.702 35.0588C218.847 35.2982 218.919 35.5946 218.919 35.9481V36.5108C218.919 36.697 218.938 36.864 218.981 37.0122C219.021 37.1595 219.092 37.2798 219.194 37.3748V37.4721H218.359C218.252 37.3797 218.184 37.2428 218.155 37.0618C218.123 36.8805 218.109 36.6944 218.109 36.503V35.9559C218.109 35.6329 218.014 35.3731 217.826 35.1752C217.637 34.979 217.384 34.8788 217.065 34.8788H215.681ZM215.681 34.2428H216.835C217.293 34.2428 217.623 34.1556 217.823 33.9821C218.026 33.8072 218.125 33.5423 218.125 33.1865C218.125 32.8495 218.028 32.5884 217.832 32.4036C217.636 32.2184 217.331 32.1259 216.917 32.1259H215.681V34.2428ZM224.571 34.6978H222.114V36.84H224.99V37.4721H221.304V31.4886H224.946V32.1259H222.114V34.0618H224.571V34.6978Z" fill="#58595B"/>
<path fill-rule="evenodd" clip-rule="evenodd" d="M0 22.7802V29.7632H22.343C26.184 29.7632 29.3261 26.6202 29.3261 22.7802V0H6.98173C3.14173 0 0 3.14205 0 6.98205V22.7802Z" fill="#0095DA"/>
<path fill-rule="evenodd" clip-rule="evenodd" d="M6.90325 8.55048C6.90325 7.39621 5.96822 6.45988 4.81427 6.45988C3.66 6.45988 2.72368 7.39621 2.72368 8.55048C2.72368 9.70443 3.66 10.6395 4.81427 10.6395C5.96822 10.6395 6.90325 9.70443 6.90325 8.55048ZM6.90325 10.5C6.90325 10.2253 6.85006 9.96291 6.75244 9.72226C6.44206 10.4886 5.69092 11.0296 4.81427 11.0296C3.93633 11.0296 3.18487 10.4886 2.87449 9.72226C2.77817 9.96291 2.72368 10.2253 2.72368 10.5V21.2131C2.72368 22.3622 3.66389 23.302 4.81427 23.302C5.96335 23.302 6.90325 22.3622 6.90325 21.2131V10.5ZM22.1896 12.5906H24.5118C25.6622 12.5906 26.6021 11.6491 26.6021 10.5C26.6021 9.35091 25.6622 8.41102 24.5118 8.41102H20.1007C18.9516 8.41102 18.0101 9.35091 18.0101 10.5V21.2131C18.0101 22.3622 18.9516 23.302 20.1007 23.302C21.2497 23.302 22.1896 22.3622 22.1896 21.2131V17.7023H23.0968C24.0331 17.7023 24.7995 16.9359 24.7995 15.9996C24.7995 15.0623 24.0331 14.2959 23.0968 14.2959H22.1896V12.5906ZM16.5632 10.5C16.5632 9.35091 15.6221 8.41102 14.473 8.41102C13.3239 8.41102 12.384 9.35091 12.384 10.5V16.1669L7.23892 11.0235V16.9333L12.9983 22.6926C13.2834 22.9777 13.6317 23.1626 14.0004 23.2476L14.0056 23.2489L14.0449 23.2576L14.0624 23.2615L14.0867 23.2667L14.1247 23.2729H14.1272L14.1739 23.2806L14.1778 23.2819C14.2742 23.2959 14.3728 23.302 14.473 23.302H14.5275C15.0457 23.2894 15.5601 23.0867 15.9525 22.6926C16.3466 22.2999 16.5493 21.7842 16.5619 21.2663V21.265L16.5632 21.2153V10.5Z" fill="white"/>
<path fill-rule="evenodd" clip-rule="evenodd" d="M36.9285 25.3531H41.9076V0.997295H39.4359C37.752 0.997295 36.9285 1.89146 36.9285 3.6107V25.3531ZM43.6129 3.6107V25.3531H48.5196V8.62638L58.4416 25.3531H63.636V0.997295H58.728V17.724L48.8069 0.997295H46.1199C44.7227 0.997295 43.6129 2.21481 43.6129 3.6107ZM76.8383 4.93719C81.3876 4.93719 83.5362 8.37567 83.5362 13.1744C83.5362 18.0824 81.3876 21.5209 76.8383 21.5209C72.289 21.5209 70.1757 17.9394 70.1757 13.1744C70.1757 8.44638 72.289 4.93719 76.8383 4.93719ZM76.8383 25.7118C84.252 25.7118 88.5152 20.6608 88.5152 13.1744C88.5152 5.796 84.109 0.603241 76.8383 0.603241C69.6029 0.603241 65.1966 5.7253 65.1966 13.1744C65.1966 20.6251 69.4232 25.7118 76.8383 25.7118ZM106.231 0.997295C104.87 0.997295 104.082 1.6054 103.795 2.82292L99.0318 19.1922L93.8374 0.997295H88.3213L96.7385 25.3531H101.466L109.813 0.997295H106.231ZM114.778 0.997295C113.559 0.997295 112.771 1.53438 112.414 2.60854L104.283 25.3531H109.619L111.232 20.3744H120.653L122.264 25.3531H127.529L118.789 0.997295H114.778ZM115.888 5.904L119.255 16.2555H112.557L115.888 5.904Z" fill="#58595B"/>
<path fill-rule="evenodd" clip-rule="evenodd" d="M143.526 12.0649V10.4533H133.998V5.22357H146.714V0.997299H131.598C130.201 0.997299 129.091 2.21481 129.091 3.6107V25.3531H133.998V14.5719H140.911C142.307 14.5719 143.526 13.4621 143.526 12.0649ZM153.541 0.997299C152.323 0.997299 151.535 1.53438 151.177 2.60854L143.046 25.3531H148.384L149.995 20.3744H159.415L161.027 25.3531H166.292L157.552 0.997299H153.541ZM154.651 5.904L158.018 16.2555H151.32L154.651 5.904ZM187.447 7.94595C187.447 2.9306 184.653 0.997299 179.602 0.997299H170.361C168.964 0.997299 167.854 2.21481 167.854 3.6107V25.3531H172.833V15.8971H178.134C181.072 15.8971 181.609 16.8282 181.788 19.7663C181.823 22.1303 181.895 23.5262 182.003 23.8849C182.038 24.3866 182.146 24.8883 182.397 25.3531H187.876C187.411 25.0314 187.125 24.4943 187.088 23.7418L186.874 18.9782C186.766 17.4023 186.551 16.1835 186.122 15.36C185.62 14.6072 184.832 14.0348 183.793 13.6761C186.122 13.0314 187.447 11.0257 187.447 7.94595ZM182.397 8.41103C182.397 10.775 181.072 11.6351 178.708 11.6351H172.833V5.22357H178.994C181.215 5.22357 182.397 6.19006 182.397 8.41103ZM189.403 3.6107V25.3531H194.095V5.68833L199.074 25.3531H204.16L209.139 5.68833V25.3531H213.831V0.997299H206.417L201.653 19.5509L196.746 0.997299H191.91C190.513 0.997299 189.403 2.21481 189.403 3.6107ZM225.888 0.997299C224.67 0.997299 223.881 1.53438 223.524 2.60854L215.393 25.3531H220.729L222.342 20.3744H231.763L233.374 25.3531H238.639L229.899 0.997299H225.888ZM226.998 5.904L230.365 16.2555H223.667L226.998 5.904Z" fill="#0095DA"/>
</svg>
